<?xml version="1.0" encoding="UTF-8" standalone="no"?>
<!-- Created with Inkscape (http://www.inkscape.org/) -->

<svg
   version="1.1"
   id="svg1"
   width="423.681"
   height="807.39703"
   viewBox="0 0 423.681 807.39706"
   sodipodi:docname="Orientation 2.svg"
   xmlns:inkscape="http://www.inkscape.org/namespaces/inkscape"
   xmlns:sodipodi="http://sodipodi.sourceforge.net/DTD/sodipodi-0.dtd"
   xmlns="http://www.w3.org/2000/svg"
   xmlns:svg="http://www.w3.org/2000/svg">
  <defs
     id="defs1" />
  <sodipodi:namedview
     id="namedview1"
     pagecolor="#ffffff"
     bordercolor="#000000"
     borderopacity="0.25"
     inkscape:showpageshadow="2"
     inkscape:pageopacity="0.0"
     inkscape:pagecheckerboard="0"
     inkscape:deskcolor="#d1d1d1">
    <inkscape:page
       x="-185.00859"
       y="-157.5619"
       inkscape:label="1"
       id="page1"
       width="793.91998"
       height="1122.5601"
       margin="0"
       bleed="0" />
  </sodipodi:namedview>
  <g
     id="g1"
     inkscape:groupmode="layer"
     inkscape:label="1"
     transform="translate(-185.00859,-157.5619)">
    <path
       id="path1"
       d="m 295.349,658.784 c -0.771,-5.519 -1.538,-11.039 -2.309,-16.559 -0.197,-1.397 -0.39,-2.804 -0.337,-4.214 0.074,-1.963 0.622,-3.868 1.169,-5.752 1.227,-4.223 2.453,-8.446 3.68,-12.669 1.148,-3.956 2.685,-5.481 5.213,-8.604 2.182,-2.694 4.35,-5.406 6.519,-8.113 0.442,-0.557 0.898,-1.122 1.498,-1.507 0.451,-0.289 0.959,-0.469 1.467,-0.64 2.296,-0.793 4.592,-1.581 6.891,-2.37 0.951,-0.324 1.924,-0.657 2.931,-0.666 3.018,-0.022 6.085,3.75 8.534,5.244 5.397,3.308 10.82,6.576 16.231,9.866 0.871,0.53 1.761,1.077 2.383,1.888 0.53,0.701 0.823,1.55 1.104,2.378 l 7.031,20.603 c 2.155,6.322 3.859,12.612 7.78,18.101 2.751,3.847 5.87,7.597 7.233,12.21 3.364,11.372 -2.191,21.045 -8.556,29.933 -3.413,4.762 -6.742,9.669 -11.158,13.515 -5.309,4.63 -11.179,6.212 -17.676,8.245 -6.431,2.006 -12.652,4.188 -19.534,3.416 -4.42,-0.495 -8.459,-2.86 -12.213,-5.094 -10.155,-6.046 -17.786,-16.783 -20.792,-28.318 -1.809,-6.956 -1.726,-14.579 -2.142,-21.728 l -1.581,-8.096 -8.49,-10.96 c 0,0 -8.1,-5.139 -8.1,-5.143 -3.163,-2.34 -5.756,-2.344 -9.546,-1.113 -2.435,0.788 -4.832,1.831 -7.381,2.041 -4.767,0.386 -9.428,-2.142 -13.734,-3.855 -3.465,-1.371 -6.944,-2.926 -9.677,-5.458 -5.371,-4.981 -6.847,-12.512 -9.791,-18.925 -1.796,-3.912 -3.102,-7.903 -4.468,-11.999 -2.331,-6.97 -4.657,-13.935 -6.983,-20.905 0,0 -10.221,-35.734 -10.265,-35.887 -5.34,-18.675 -10.185,-37.556 -17.356,-55.64 -7.22,-18.202 -18.141,-34.612 -25.128,-52.928 -0.145,-0.373 -0.285,-0.745 -0.421,-1.117 -5.222,-14.032 -9.707,-30.504 -7.574,-45.556 2.418,-17.115 11.464,-32.496 21.194,-46.283 1.901,-2.694 3.995,-5.252 6.26,-7.648 4.644,-4.924 10.001,-9.174 15.867,-12.556 3.295,-1.901 6.76,-3.535 10.413,-4.591 11.316,-3.268 23.924,-1.239 35.48,-0.53 l 64.778,-1.2 c 5.599,-0.407 11.198,-0.815 16.796,-1.227 9.677,-0.705 19.705,-0.617 29.036,-3.513 0.587,-0.184 1.2,-0.394 1.621,-0.846 0.674,-0.731 0.328,-2.553 0.376,-3.482 0.018,-0.316 0.031,-0.644 -0.105,-0.929 -0.122,-0.263 -0.359,-0.451 -0.587,-0.631 -3.281,-2.584 -6.553,-5.182 -9.826,-7.776 -12.371,-9.813 -22.705,-21.851 -31.489,-34.927 -9.409,-14.01 -16.261,-28.725 -23.064,-44.106 -2.703,-6.111 -11.438,-10.378 -16.713,-14.325 -2.103,-1.577 -6.365,-2.081 -8.853,-2.891 -1.989,-0.649 -4.013,-1.047 -6.112,-0.973 -1.791,0.066 -3.618,1.139 -5.383,0.39 -1.179,-0.499 -1.91,-1.691 -2.353,-2.891 -1.314,-3.584 -2.274,-7.036 -1.652,-10.886 0.64,-3.961 3.597,-8.333 5.354,-11.951 3.754,-7.736 7.911,-15.232 11.942,-22.824 3.859,-7.272 5.379,-16.774 7.758,-24.703 1.818,-6.067 10.641,-10.807 16.349,-12.266 0.368,-0.096 0.754,-0.184 1.13,-0.118 0.324,0.061 0.618,0.228 0.903,0.394 0.823,0.482 1.647,0.959 2.47,1.441 0.342,0.197 0.684,0.403 0.951,0.692 0.394,0.421 0.583,0.99 0.758,1.542 0.88,2.73 1.844,4.723 1.209,7.487 -0.464,2.02 -1.135,4.009 -1.7,6.002 -1.012,3.588 -2.615,6.51 -2.387,10.413 0.21,3.531 2.168,6.133 3.285,9.37 1.744,5.038 2.962,10.26 3.614,15.552 0.46,3.684 1.034,7.36 1.797,10.991 0.657,3.146 0.898,7.163 2.843,9.796 0.438,0.595 0.968,1.117 1.494,1.638 5.475,4.254 10.215,10.089 15.161,14.969 18.859,15.455 36.225,31.651 52.889,49.415 9.195,9.8 17.475,20.441 25.155,31.463 7.604,10.912 14.605,21.803 18.714,34.564 1.279,3.982 2.322,8.104 2.217,12.283 -0.11,4.263 -1.406,8.394 -2.747,12.442 -1.209,3.64 -2.466,7.285 -4.302,10.654 -3.351,6.159 -8.499,11.162 -14.01,15.499 -8.744,6.891 -18.924,9.388 -29.324,12.726 -6.282,2.015 -12.564,4.03 -18.846,6.045 l -33.509,7.053 -28.343,4.981 c -7.794,2.686 -15.456,3.041 -18.351,11.132 -0.456,1.27 1.962,7.158 2.409,8.639 1.551,5.182 3.833,9.856 6.431,14.596 4.087,7.448 6.475,15.276 9.287,23.306 l 7.675,29.68 0.828,1.835 c 3.544,-6.68 6.782,-16.673 12.63,-21.593 3.61,-3.035 9.217,-3.399 13.191,-0.858 1.226,0.788 2.291,1.805 3.32,2.839 3.198,3.211 6.225,6.61 9.178,10.049 2.865,8.696 5.866,17.357 8.665,26.066 2.624,8.183 0.145,17.799 0.289,26.297 0.215,12.626 -1.813,26.464 5.638,37.407 3.882,5.695 9.025,10.392 13.637,15.508 7.921,8.784 12.968,17.94 17.348,28.804 0.456,1.13 0.916,2.265 1.166,3.456 0.319,1.529 0.293,3.102 0.262,4.661 -0.109,5.849 -1.362,10.098 -3.544,15.421"
       style="fill:none;stroke:#000000;stroke-width:1;stroke-linecap:butt;stroke-linejoin:miter;stroke-miterlimit:10;stroke-dasharray:none;stroke-opacity:1"
       transform="matrix(1.3333333,0,0,-1.3333333,0,1122.56)" />
    <path
       id="path2"
       d="m 333.784,568.135 c 5.726,-7.395 9.589,-14.724 19.087,-17.238 0.675,-0.18 1.389,-0.359 2.063,-0.184 0.522,0.131 0.968,0.46 1.398,0.78 19.704,14.719 46.44,31.48 55.469,55.596 2.041,5.458 3.071,11.254 5.117,16.708 3.964,10.58 12.945,14.973 21.873,20.743 l 6.711,1.121 6.4,-2.137 3.917,-4.153 c 0.705,-8.127 -0.434,-15.057 -3.86,-22.614 -0.517,-1.139 -1.086,-2.282 -1.962,-3.176 -0.876,-0.894 -2.011,-1.485 -3.119,-2.072 -7.106,-3.746 -17.335,-7.872 -22.977,-13.668 -3.347,-3.439 -5.424,-9.217 -7.794,-13.484 -8.459,-15.232 -18.268,-29.671 -28.694,-43.619 -5.322,-7.119 -10.812,-14.115 -16.371,-21.05 -3.062,-3.824 -9.458,-15.372 -15.004,-15.494 -1.962,-0.044 -3.737,1.051 -5.603,1.656 -6.378,2.072 -11.762,6.019 -18.259,8.029"
       style="fill:none;stroke:#000000;stroke-width:1;stroke-linecap:butt;stroke-linejoin:miter;stroke-miterlimit:10;stroke-dasharray:none;stroke-opacity:1"
       transform="matrix(1.3333333,0,0,-1.3333333,0,1122.56)" />
    <path
       id="path3"
       d="m 314.832,511.393 c -2.549,20.278 -4.683,40.64 -8.612,60.717 -3.614,18.439 -7.627,39.983 -20.445,54.545 -6.79,7.715 -17.655,10.877 -26.854,14.719"
       style="fill:none;stroke:#000000;stroke-width:1;stroke-linecap:butt;stroke-linejoin:miter;stroke-miterlimit:10;stroke-dasharray:none;stroke-opacity:1"
       transform="matrix(1.3333333,0,0,-1.3333333,0,1122.56)" />
    <path
       id="path4"
       d="m 249.721,569.179 34.867,-73.851"
       style="fill:none;stroke:#000000;stroke-width:1;stroke-linecap:butt;stroke-linejoin:miter;stroke-miterlimit:10;stroke-dasharray:none;stroke-opacity:1"
       transform="matrix(1.3333333,0,0,-1.3333333,0,1122.56)" />
    <path
       id="path5"
       d="M 320.972,317.619 C 306.06,302.207 293.925,287.834 285.076,268.2 274.457,244.644 253.78,230.438 232.805,217.024 l -1.814,-5.432 1.499,-4.294 5.694,-4.713"
       style="fill:none;stroke:#000000;stroke-width:1;stroke-linecap:butt;stroke-linejoin:miter;stroke-miterlimit:10;stroke-dasharray:none;stroke-opacity:1"
       transform="matrix(1.3333333,0,0,-1.3333333,0,1122.56)" />
  </g>
</svg>
